<svg xmlns="http://www.w3.org/2000/svg" viewBox="0 0 620.63 213.46"><defs><clipPath id="a" clipPathUnits="userSpaceOnUse"><path d="M0 172h495V0H0z"/></clipPath></defs><g clip-path="url(#a)" transform="matrix(1.33333 0 0 -1.33333 -19.69 221.4)" fill="#fff"><path d="M52.4 91.45s-8.94-26.09-10.62-43.19c6.12 14.91 17.85 35.7 24.98 45.51-10.06 8.33-28.63 17.08-28.63 17.08s14.7 6.38 44.34 7.96c0 0 12.35 24.18 44.2 46.85-19.25-6.26-37.47-22.94-55.99-41.16-23.7-1.24-49.36-10.88-52.1-12.11 27.3-14.3 33.81-20.94 33.81-20.94"/><path d="M159.73 110.52c-23.18 9.47-51.78 11.91-51.78 11.91s-.64 7.42 1.57 21.7c-2.72-5.95-7.69-18.67-8.53-28.16 20.85-1.64 35.09-6.43 35.09-6.43s-21.15-8.12-32.84-17.47c2.13-5.27 6.85-20.58 9.54-32.44-4.6 4.2-18.2 15.59-28.06 21.64-13.18-5.18-49.53-41.62-69.95-75.32 8.83 9.32 34.73 38.96 69.8 60.4 7.17-4.28 40.54-26.4 40.54-26.4s-7.31 39.33-10.03 48.3c10.45 7.23 28.06 17.1 44.65 22.27M190.1 128.4h-5.73s-9.64-16.53-9.93-17.52l-7.19-.32v-8.8h6.4V75.47c0-5.92 1.52-10.54 4.5-13.74 2.99-3.22 7.1-4.85 12.2-4.85 2.27 0 4.59.16 6.95.46 2.36.31 4.38.84 6.03 1.52l.46.18v9.68l-.97-.34a20.48 20.48 0 00-6.68-1.07c-2.42 0-4.04.54-4.8 1.6-.84 1.13-1.25 2.99-1.25 5.53v27.16h14.17v9.46h-14.17zM466.05 128.4H460.35s-9.65-16.53-9.93-17.52c-.91-.03-7.19-.32-7.19-.32v-8.8h6.4V75.47c0-5.92 1.5-10.54 4.49-13.74 3-3.22 7.1-4.85 12.2-4.85 2.26 0 4.59.16 6.95.46 2.35.31 4.39.84 6.03 1.52l.46.18v9.68l-.96-.34a20.87 20.87 0 00-6.7-1.07c-2.4 0-4.02.54-4.8 1.6-.82 1.13-1.25 2.99-1.25 5.53v27.16h14.19v9.46h-14.19zM295 111.14h16.5V57.6H295zM313.87 97.6c.6.41 1.22.78 1.88 1.07 1.76.74 3.68 1.13 5.78 1.13 1.57 0 2.84-.41 3.9-1.24 1-.8 1.5-2.47 1.5-4.95v-36h16.51v37.21c0 6.4-1.3 10.96-3.86 13.55-2.58 2.58-6.1 3.88-10.5 3.88-3.72 0-6.99-.64-9.79-1.92l-5.72-12.43zM384.43 85.35c-2.33 2.77-6.54 5.03-12.44 6.71-4.46 1.26-7.35 2.26-8.61 2.95-1.05.58-1.57 1.58-1.57 3.06 0 1.23.71 2.21 2.15 2.97 1.58.83 3.72 1.26 6.32 1.26a37.35 37.35 0 0010.23-1.47l3.87 8.43-.38.18c-1.97.9-4.1 1.58-6.34 2.06-2.25.46-5 .7-8.18.7-7 0-12.24-1.53-15.55-4.52-3.31-3-5-6.74-5-11.13 0-4.25.94-7.77 2.8-10.47 1.84-2.7 5.37-4.82 10.42-6.28 6.36-1.85 8.66-3.08 9.48-3.78a4.71 4.71 0 001.65-3.74c0-1.55-.82-2.8-2.51-3.83-1.8-1.1-4.45-1.64-7.88-1.64-2.72 0-5.41.4-8.03 1.2-2.61.8-4.66 1.58-6.07 2.34l-.85.44-.24-.24h-.01V60.09l.35-.22c1.36-.86 3.47-1.56 6.42-2.14 2.88-.55 6.1-.82 9.58-.82 8.42 0 14.58 1.68 18.32 5.01a16.4 16.4 0 015.67 12.63c0 4.37-1.19 8-3.6 10.8M283.6 107.45c-3.46 3.16-8.85 4.74-15.97 4.74-4.4 0-8.18-.35-11.28-1.05-1.14-.27-2.23-.56-3.32-.84l-5.48-11.91.27-.3.77.43a30.45 30.45 0 006.57 2.55c2.51.67 5.42 1.02 8.66 1.02 2.9 0 5.16-.58 6.7-1.73 1.5-1.12 2.24-2.44 2.24-4.06v-3.8c-.94.6-2.03 1.13-3.5 1.59-2.08.6-4.24.92-6.4.92-7.04 0-12.75-1.65-16.94-4.88-4.28-3.3-6.45-8.02-6.45-14.04v-.92c0-6.07 1.63-10.67 4.87-13.71 3.19-3.04 7.93-4.56 14.1-4.56 2.54 0 4.87.37 7.01 1.05l4.9 11.1-.3.32a9.19 9.19 0 00-5.39-1.72c-2.51 0-4.6.54-6.2 1.63-1.5 1-2.26 3.15-2.26 6.39v1.42c0 3.12.75 5.42 2.23 6.8 1.48 1.41 3.55 2.13 6.14 2.13 2.79 0 4.89-.76 6.26-2.24 1.37-1.49 2.08-3.71 2.08-6.6l-.01-19.65h15.96v34.79c0 6.87-1.78 11.96-5.27 15.13M434.85 107.45c-3.46 3.16-8.84 4.75-15.98 4.75-4.37 0-8.17-.36-11.27-1.06-1.14-.27-2.24-.53-3.31-.84l-5.49-11.91.28-.3.77.43a29.41 29.41 0 006.58 2.55c2.5.67 5.41 1.02 8.63 1.02 2.91 0 5.18-.58 6.72-1.73 1.5-1.12 2.22-2.44 2.22-4.06v-3.8a14.1 14.1 0 01-3.5 1.59c-2.08.6-4.24.93-6.38.93-7.05 0-12.74-1.66-16.95-4.9-4.28-3.3-6.43-8.01-6.43-14.03v-.92c0-6.07 1.62-10.67 4.85-13.71 3.19-3.04 7.93-4.56 14.07-4.56 2.57 0 4.92.37 7.04 1.05l4.89 11.1-.3.32a9.15 9.15 0 00-5.36-1.72c-2.52 0-4.62.54-6.21 1.63-1.5 1-2.27 3.15-2.27 6.39v1.42c0 3.12.75 5.42 2.21 6.8 1.5 1.41 3.57 2.13 6.17 2.13 2.76 0 4.87-.76 6.24-2.23 1.39-1.5 2.1-3.72 2.1-6.6l-.03-19.66h15.95v34.79c0 6.87-1.76 11.96-5.24 15.13M247.47 109.28c-2.3 1.93-5.39 2.9-9.14 2.9-3.2 0-6.02-.86-8.39-2.55l-.2-.19a17.35 17.35 0 01-4.16-4.54c-.08 2.45-.23 6.24-.23 6.24h-15.9V57.52h16.51v33.62a9.05 9.05 0 004.61 7.84l.15.1a9.88 9.88 0 004.79 1.22l.2-.01a9.7 9.7 0 005.77-2.01l.74-.56 5.29 11.53zM231.2 156.89l-7.32-17.3h14.68zm22.35-34.46h-7.92l-4.32 10.43h-20.17l-4.39-10.43h-7.67l18.76 43.53h6.95zM256.99 154.92H265V122.2H257zm-.05 3.99l.14 7.14H265v-7.1zM279.25 122.25h-7.37v32.6h7.37v-7.35c2 4.88 5.72 8.22 11.39 7.97v-7.9h-.43c-6.45 0-10.96-4.26-10.96-12.9z"/></g></svg>