<svg xmlns="http://www.w3.org/2000/svg" viewBox="0 0 156.2 148.37"><g fill="#fff"><path d="M113.14 43.56a2 2 0 110 4 2 2 0 01-2.01-2c0-1.1.9-2 2-2M101.82 41.3a4.25 4.25 0 110 0M43.05 43.56a2 2 0 012.02 2 2 2 0 01-4 0c0-1.1.89-2 1.98-2M54.38 41.3a4.25 4.25 0 110 8.5 4.25 4.25 0 010-8.5M89.4 43.56c1.1 0 2 .9 2 2a2 2 0 01-4 0c0-1.1.9-2 2-2M78.1 43.56a2 2 0 010 4 2 2 0 110-4M66.8 43.56a2 2 0 110 3.99 2 2 0 010-3.99M85.75 52.43c0 1.1-.9 2.01-2 2.01s-2-.91-2-2.01a2 2 0 114 0M74.45 52.43c0 1.1-.91 2.01-2 2.01a2 2 0 112-2.01M78.1 58.7a2 2 0 11-.01 4 2 2 0 01.01-4M75.95 21.71a3.5 3.5 0 11-7 0 3.5 3.5 0 017 0M89.4 32.76a2.35 2.35 0 11.01-4.7 2.35 2.35 0 01-.01 4.7M66.8 32.76a2.35 2.35 0 110-4.7 2.35 2.35 0 010 4.7M95.06 35.68a3 3 0 110 5.99 3 3 0 110-5.99M61.15 41.67a3 3 0 110-5.99c1.64 0 3 1.33 3 3a3 3 0 01-3 2.99M83.75 25.21a3.5 3.5 0 110-7 3.5 3.5 0 010 7M72.44 65.9c1.93 0 3.5 1.55 3.51 3.5 0 1.94-1.58 3.49-3.5 3.5a3.5 3.5 0 010-7M89.4 58.34c1.3 0 2.36 1.06 2.36 2.36 0 1.3-1.07 2.34-2.37 2.35a2.35 2.35 0 010-4.7M66.8 58.34a2.36 2.36 0 11-2.35 2.35c0-1.3 1.05-2.34 2.35-2.35M95.06 49.43a3 3 0 11-.02 6 3 3 0 01.02-6M61.15 49.43c1.65.01 3 1.34 3 3a3 3 0 11-3-3M80.25 69.4a3.5 3.5 0 117 0 3.5 3.5 0 01-7 0M78.1 17.54a4.25 4.25 0 11-.03-8.5 4.25 4.25 0 01.03 8.5M78.1 4a2 2 0 110-4 2 2 0 010 4M78.1 73.56a4.25 4.25 0 11.02 8.5 4.25 4.25 0 01-.02-8.5"/><path d="M78.1 81.6a2 2 0 110 4 2 2 0 010-4M20.13 134.93h.21l6.47 7.1 6.37-7.1h.23v13.27h-2.6v-4.93c0-.88.1-2.3.1-2.3s-.8 1.16-1.42 1.86l-2.6 2.91h-.25l-2.61-2.91c-.62-.7-1.41-1.85-1.41-1.85s.1 1.4.1 2.3v4.92h-2.59v-13.27M48.15 141.63c0-2.45-1.62-4.32-4.01-4.32-2.4 0-4.02 1.87-4.02 4.32 0 2.46 1.63 4.33 4.02 4.33 2.4 0 4.01-1.87 4.01-4.33zm-10.8 0a6.65 6.65 0 016.79-6.73c3.78 0 6.8 2.85 6.8 6.73a6.65 6.65 0 01-6.8 6.74 6.65 6.65 0 01-6.8-6.74M58.77 142.1c-.66-.62-1.56-1.8-1.56-1.8s.2 1.45.2 2.4v5.5h-2.54v-13.25h.27l6.62 6.22c.64.6 1.55 1.8 1.55 1.8s-.17-1.5-.17-2.4v-5.5h2.52v13.24h-.27l-6.62-6.21M73.93 137.44H70.2v-2.37h10.19v2.37h-3.74v10.76h-2.7v-10.76M89.63 141.36c1.33 0 2.18-.52 2.18-1.97 0-1.47-.89-1.95-2.18-1.95h-2.09v3.92zm-4.8-6.3h4.88c2.68 0 4.88 1.26 4.88 4.33a3.86 3.86 0 01-2.57 3.84l3 4.97h-3.1l-2.66-4.56h-1.72v4.56h-2.7v-13.13M128.38 135.07h2.7v10.75h5.94v2.38h-8.64v-13.13M120 144.16s-1.59-4.19-1.62-4.32l-1.6 4.32zm-1.7-9.2h.23l6 13.24h-2.83l-.74-1.78h-5.1l-.73 1.78h-2.6l5.77-13.25M105.08 133.64l2-1.86-2.45-1.07-1.88 2.93zm-5.37 1.43h8.7v2.37h-6v3.02h5.27v2.31h-5.27v3.05h6.26v2.38h-8.96v-13.13M69.54 110.4l-3.4-1.15c-1.17-.39-1.94-.88-1.94-2.04 0-1.19 1.02-1.92 2.65-1.92 1.82 0 3.25.56 4.48 1.79l3.75-3.93c-1.33-1.52-3.89-3.27-8.6-3.27-4.32 0-8.67 2.34-8.67 7.56 0 3.73 2.07 6.23 6.32 7.65l3.04 1.03c1.67.55 2.64 1.11 2.64 2.34 0 1.45-1.15 2.2-3.42 2.2-2.75 0-4.33-1.46-5.4-2.76l-4.79 3.58c1.37 1.78 4.5 4.61 10.5 4.61 6.23 0 9.65-2.84 9.65-8.02 0-3.8-2.04-6.1-6.81-7.68M13.26 120.35c-3.82 0-6.49-3.05-6.49-7.4 0-4.34 2.58-7.36 6.26-7.36 3.41 0 5 1.69 5.89 3.02l4.96-3.37c-2.47-3.56-6.16-5.36-10.96-5.36A12.86 12.86 0 000 112.95c0 7.35 5.84 13.1 13.3 13.1 5.22 0 8.66-1.84 11.15-5.95l-5.06-3.26c-.92 1.67-2.47 3.5-6.13 3.5M83.65 125.71h6.62v-25.53h-6.62v25.53M115.95 113.3L99.5 99.73c-.18-.15-.26-.16-.27-.16 0 0-.02.04-.02.11v26.02h6.2v-13.04l16.45 13.53c.18.15.26.17.28.17V100.18h-6.19v13.11M142.5 120.35c-4.16 0-6.95-2.98-6.95-7.4 0-4.4 2.79-7.36 6.94-7.36s6.94 2.95 6.94 7.36c0 4.42-2.79 7.4-6.94 7.4zm0-20.47c-7.7 0-13.72 5.74-13.72 13.07 0 7.35 6.02 13.1 13.71 13.1 7.7 0 13.71-5.75 13.71-13.1 0-7.33-6.02-13.07-13.7-13.07M42.73 118.14l-3.1-7.18-3 7.18zm9.74 7.57H46l-1.34-3.11h-9.9l-1.3 3.11h-6.1l12.48-26.08c.07-.16.11-.17.19 0l12.44 26.08"/></g></svg>