<svg xmlns="http://www.w3.org/2000/svg" viewBox="0 0 190.67 41.12"><g fill="#fff"><path d="M55.33 28.1h-3.01V13.05h3.21c4.2 0 7.25 3.17 7.25 7.55 0 4.42-3.06 7.5-7.45 7.5zm.22-18.96h-7.89v22.84h7.98c7.15 0 11.76-4.47 11.76-11.38 0-6.86-4.76-11.46-11.85-11.46M30.79 13.06v15l-12.98 7.5-12.99-7.5v-15l12.99-7.5zm-30.8-2.78v20.56l17.82 10.28 17.8-10.28V10.28L17.81 0 0 10.28M158.2 16.33h-4.09v15.65h4.08zm.33-5.15a2.39 2.39 0 11-4.77 0 2.39 2.39 0 014.77 0M93.67 22.3c-1.75-.68-2.29-1-2.29-1.74 0-.7.56-1.12 1.5-1.12 1.56 0 2.73.84 3.75 1.77L99 18.67a8.4 8.4 0 00-6.07-2.61c-3.3 0-5.61 1.92-5.61 4.66 0 3.13 2.42 4.35 4.78 5.13l.79.26c1.34.42 2.09.66 2.09 1.47 0 .45-.25 1.22-1.91 1.22a4.88 4.88 0 01-3.9-1.91l-2.4 2.55a7.9 7.9 0 006.24 2.8c3.74 0 6.06-1.8 6.06-4.72 0-2.93-2.04-3.93-5.4-5.22M185.26 22.3c-1.74-.68-2.29-1-2.29-1.74 0-.7.56-1.12 1.5-1.12 1.56 0 2.73.84 3.75 1.77l2.37-2.54a8.4 8.4 0 00-6.06-2.61c-3.31 0-5.62 1.92-5.62 4.66 0 3.13 2.42 4.35 4.78 5.13l.79.26c1.35.42 2.09.66 2.09 1.47 0 .45-.25 1.22-1.91 1.22a4.88 4.88 0 01-3.9-1.91l-2.4 2.55a7.9 7.9 0 006.25 2.8c3.73 0 6.05-1.8 6.05-4.72 0-2.93-2.04-3.93-5.4-5.22M101.5 38.06c2.7 0 4.52-1.85 4.52-5.53v-16.2h-4.1v16.03c0 1.42-.58 2.12-1.56 2.12-.47 0-.93-.14-1.36-.38l-.69 3.4c1.01.4 1.84.56 3.2.56zm4.85-26.88a2.39 2.39 0 11-4.77 0 2.39 2.39 0 014.77 0M117.67 26.87c0 .8-1.67 2.06-3.64 2.06-1.21 0-2.01-.8-2.01-1.8 0-.66.36-1.86 2.47-1.86 1.57 0 3.18.48 3.18.48zm1.61-9.67a7.77 7.77 0 00-4.18-1.14c-2.57 0-4.68.92-5.95 2.6l2.38 2.53a3.9 3.9 0 013.25-1.8c.5 0 1 .1 1.37.25a2.34 2.34 0 011.52 2.2v1.03c-.11-.06-1.4-.6-3.46-.6-3.3 0-5.78 2.17-5.78 5.06 0 2.85 2.13 4.92 5.08 4.92 1.83 0 2.98-.81 3.98-1.65h.18v1.38h3.88V21.74c0-2.02-.77-3.55-2.27-4.54M129.14 18.16h-.1v-1.84h-4.16v15.66h4.16v-7.05c0-2.82 1.4-4.75 4.92-4.75v-4.12c-2.1.03-3.8.67-4.82 2.1M142.72 28.55c-2.25 0-4-1.93-4-4.4 0-2.48 1.75-4.42 3.98-4.42 2.48 0 4.02 2.3 4.02 4.42 0 2.43-1.8 4.4-4 4.4zm3.97 2.06h.2v1.37h3.88V9.14h-4.1v8.48h-.15c-.81-.98-2.73-1.56-4.04-1.56-4.96 0-7.64 4.17-7.64 8.1a8.04 8.04 0 002.37 5.93 7.6 7.6 0 005.27 2.16c.93 0 2.42-.28 4.21-1.64M165.78 17.6h-.16v-1.28h-4.1v15.66h4.1v-8.15c0-3.6 2.23-4.13 3.57-4.13 2.35 0 3.2 1.95 3.2 3.79v8.49h4.08v-8.45c0-4.68-2.5-7.47-6.7-7.47-2.9 0-3.97 1.5-4 1.55M73.9 22.55a3.57 3.57 0 013.64-2.9c1.79 0 3.05 1 3.5 2.9zm11.19 1.43c-.03-4.68-3.18-7.92-7.69-7.92-4.5 0-7.76 3.4-7.76 8.08 0 4.77 3.31 8.1 8.06 8.1 2.78 0 5.2-1.01 6.63-2.8-.3-.32-2.11-2.23-2.44-2.56a5.26 5.26 0 01-3.87 1.75 4.05 4.05 0 01-4.14-3.17h11.11c.07-.3.1-.98.1-1.48"/></g></svg>