<svg xmlns="http://www.w3.org/2000/svg" viewBox="0 0 155.59 105.61" version="1.0"><path d="M88.51 105.61l37.13-95.7C127.94 3.7 133.48 0 142 0h37.36c10.37 0 18.68 3.92 18.68 15.68 0 2.3-.46 4.84-1.39 7.61l-30.44 82.32H134.4l12.22-33.43h-14.06l-13.38 33.43H88.51z" fill="#fff" fill-rule="evenodd"/><path d="M148 32.07l-5.08 13.14h14.3l4.38-10.84c2.3-5.76 2.34-5.76 2.34-6.92 0-2.76-2.1-4.6-6.03-4.6-5.77 0-7.61 2.99-9.92 9.22zM12.63 76.56l20.76-53.73C40.3 4.84 43.3 0 59.9 0h56.73l-10.38 26.98H72.12c-5.76 0-7.38.7-8.99 4.61L47.22 71.95c-.46 1.15-.92 3-.92 3.92 0 2.76 3 3.92 7.6 3.92h12.7l4.15-11.76H59.21l9-22.83h32.28l-23.06 60.4H25.54c-7.84 0-16.14-5.07-16.14-15.68 0-3.46.93-7.6 3.23-13.37zm-55.09 29.05L-.72 0h32.28l-41.73 105.61h-32.29z" fill="#fff" fill-rule="evenodd"/></svg>