<svg xmlns="http://www.w3.org/2000/svg" viewBox="0 0 235 39"><path fill="#FEFEFE" fill-rule="evenodd" d="M56.23 28.34c1.02-.15 1.9.42 2.14 1.41a2.06 2.06 0 01-1.29 2.44c-6.23 2.08-11.08 3.35-17.44 3.7h-.2c-.96 0-1.87-.32-2.44-.9-.5-.5-.75-1.14-.72-1.86.07-1.94.2-3.62.31-5.25.22-3.02.42-5.63.17-8.85-.03-.53-.09-.71-.13-.77-2.45-.44-2.92-1.73-2.99-2.45-.13-1.6 1.46-3.1 3.04-3.72.02-.06.06-.2.08-.51.03-.55.02-1.05.01-1.55V9.5l-.04-.01-.19-.07a6.28 6.28 0 01-1.87-1c-.17.42-.5.73-.89.89-3.23 1.36-5.96 1.74-8.85 2.14-1.08.15-2.2.3-3.36.51-.44.09-.87.41-.82.94.14 1.3.25 2.57.36 3.86.3 3.41.6 6.95 1.52 10.9l.3.13c.51.2 2.05.84 1.32 2.83-.2.55-.97 2.4-2.55 2.75-.15.03-.3.05-.49.05-.57 0-1.3-.22-2.07-1-1.58-1.64-2.04-3.21-2.3-5.39-.62-4.8-1-8.06-1.15-12.85a1.3 1.3 0 00-.46-.9.98.98 0 00-.73-.25c-3.05.42-5.18 1.03-7.88 1.8l-.99.28c-1.72.48-3.41-.55-4.42-1.67C.16 12.29-.24 11.03.14 10.08c.16-.42.63-1.13 1.87-1.24l1.14-.09c4.84-.39 8.66-.69 14.15-1.53 1.2-.18 2.34-.33 3.43-.48 3.84-.51 7.15-.96 10.4-2.16.91-.35 1.84.1 2.53.8.18-.68.52-1.32.82-1.88.1-.17.2-.34.28-.52.64-1.18 1.37-2.53 2.67-2.9a2.62 2.62 0 012.08.35l.18.1c.96.6 1.61 1 2.6.92 4.11-.29 6.37-.2 10.68 0 1.8.07 2.6 1.4 2.59 2.6a2.73 2.73 0 01-2.7 2.76c-1.3.03-2.44-.02-3.53-.07-2.22-.09-4.13-.17-6.5.5-.18.07-.4.1-.64.13l-.17.03.01 1.13a63.68 63.68 0 010 3.15c.07.01.18.03.4.04.8.05 1.54.08 2.26.11 3.64.16 6.52.3 10.3 2.1 1.86.88 1.67 2.12 1.56 2.48-.32 1.14-1.75 1.75-3.64 1.53-4.12-.48-7.04-.48-10.74-.48-.05 0-.15.09-.15.14l-.08.78c-.34 3.44-.57 5.7-.3 9.92.02.51.31 1.03.91 1.09 4.69.38 8.1-.16 12.4-.85l1.28-.2zm20.73-2.45c1.6.3 2.58 1.78 2.71 3.09.1 1.08-.35 1.96-1.18 2.29-1.47.56-2.7.7-3.9.83-.96.1-1.87.2-2.88.53-.83.27-1.5.57-2.15.87-1.03.47-2.1.96-3.68 1.19-.23.03-.5.06-.78.06-.5 0-1.05-.1-1.5-.44-.68-.53-.76-1.33-.83-2.03l-.04-.29a192.6 192.6 0 01-1.44-18.13c-.06-1.9-.62-3.39-1.2-4.95a28.4 28.4 0 01-.78-2.3 3.27 3.27 0 011.3-3.4c.92-.58 2.03-.45 2.99.34 2.86 2.39 2.89 7.35 2.92 13.1.03 3.49.05 7.1.69 10.53l.01.1.07.34c.08 0 .22.02.46 0a13.9 13.9 0 003.55-.93c1.64-.6 3.34-1.2 5.66-.8zm13.38-3.01c-1.76-.23-3.33-.1-4.84.01-.86.07-1.7.14-2.55.14-.66 0-1.33-.05-2.01-.16-1.3-.2-2.02-1.67-1.96-2.98.05-1.23.82-2.1 1.91-2.17 3.35-.2 6.43-.28 10.37.6 1.04.25 1.6 1.28 1.38 2.5-.24 1.33-1.2 2.2-2.3 2.06zm15.33-16.9c.03 2.14.11 4.18.18 6.13.23 6.08.43 11.34-.68 16.38-1.21 5.51-5.22 9.64-9.97 10.28a5.47 5.47 0 01-4.4-1.27 4.37 4.37 0 01-1.43-3.4c.04-1.7 1.01-4.49 2.5-5.19a1.68 1.68 0 011.8.2c1.44 1.15 2.09 2.88 1.56 4.23l-.11.26c2.52-.1 3.73-1.83 4.3-3.3 3.1-7.74 1.17-17.22-.12-23.5l-.22-1.08c-.35-1.71.36-2.57.82-2.93.86-.68 2.18-.72 3.45-.12a3.83 3.83 0 012.32 3.31zm25.96 22.36c1.03-.15 1.91.42 2.15 1.41a2.06 2.06 0 01-1.3 2.44c-6.22 2.08-11.07 3.35-17.44 3.7h-.19c-.97 0-1.87-.32-2.45-.9-.5-.5-.74-1.14-.72-1.86.07-1.94.2-3.62.32-5.25.22-3.02.41-5.63.17-8.85-.04-.53-.1-.71-.13-.77-2.45-.44-2.93-1.73-2.99-2.45-.13-1.6 1.45-3.1 3.04-3.72.02-.06.05-.2.08-.51.03-.55.02-1.04 0-1.55V9.5l-.03-.01-.19-.07c-1.53-.55-2.45-1.3-2.82-2.27-.5-1.34.2-2.62.76-3.66l.28-.51c.64-1.2 1.36-2.54 2.66-2.9a2.63 2.63 0 012.1.34l.16.1c.97.6 1.6 1 2.61.92 4.1-.29 6.36-.2 10.68 0 1.79.07 2.6 1.4 2.58 2.6a2.73 2.73 0 01-2.7 2.76c-1.3.03-2.43-.02-3.52-.07-2.22-.09-4.13-.17-6.5.5-.19.07-.41.1-.64.13l-.17.03.01 1.13c.01.88.02 1.77-.01 2.87v.28c.07.01.19.03.4.04.8.05 1.55.08 2.26.11 3.65.16 6.52.3 10.3 2.1 1.86.88 1.67 2.12 1.57 2.48-.33 1.14-1.77 1.75-3.65 1.53-4.11-.48-7.03-.48-10.73-.48-.06 0-.15.09-.16.14l-.07.78c-.34 3.44-.57 5.7-.3 9.92.02.51.3 1.03.9 1.09 4.7.38 8.1-.16 12.41-.85l1.27-.2zm21.4-22.01c1.31-.44 3.07.21 3.61 1.35 2.52 5.09-1.36 16.58-6.4 24.3-1.01 1.57-2.14 2.13-3.3 2.13-1.6 0-3.25-1.04-4.79-2.02-3.13-1.99-6.44-7.09-6.7-13-.17-3.86.03-6.41.27-9.37.1-1.31.21-2.7.3-4.35a2.05 2.05 0 011.7-2.02c1.35-.28 3.1.56 3.66 1.74.7 1.4 1.78 3.56.28 5.55-.57.8-1.87 6.9-.25 11.03 1.42 3.61 3.96 6.68 4.78 6.68h.02c1.37-.32 2.52-2.82 3.53-5.04l.39-.84c2.26-4.74 2.65-8.17 1.56-13.58-.3-1.46.5-2.28 1.33-2.56zm27.65 23.73c.08.6.32 1.19.56 1.76.43 1.05.92 2.24.3 3.44-.52.97-1.64 1.36-2.7 1.36a4.3 4.3 0 01-.67-.05c-1.19-.2-2-.82-2.15-1.69-.1-.6-.18-1.18-.25-1.74-.22-1.75-.4-3.14-1.3-4.08-1.94-1.98-3.3-3.63-4.6-5.23a82.62 82.62 0 00-4.15-4.76c0 2.14.1 3.77.19 5.49.07 1.32.15 2.68.2 4.36.01.85-.4 1.57-1.13 1.98-1.14.64-2.83.4-3.75-.2-.6-.39-.92-.96-.87-1.55.63-7.37.05-17.76-1.06-18.85-.62-.3-.95-1.03-.82-1.91.2-1.4 1.61-3.3 3.05-3.56.85-.14 1.61.26 2.05 1.08 1.31 2.5 3.9 5.83 6.4 9.05a90.92 90.92 0 014.78 6.51c0-.56.02-1.1.03-1.62.06-3.91.1-6.73-1.4-10.71a2.79 2.79 0 01.85-3.16c1.03-.78 2.47-.64 3.84.37 2.36 1.71 2.31 6.68 2.25 12.96-.04 3.63-.08 7.37.35 10.75zm25.98-1.72c1.02-.15 1.9.42 2.14 1.41a2.06 2.06 0 01-1.29 2.44c-6.23 2.08-11.08 3.35-17.44 3.7H189.87c-.96 0-1.87-.32-2.44-.9-.5-.5-.75-1.14-.72-1.86.07-1.94.19-3.63.31-5.26.22-3.02.41-5.62.17-8.84-.04-.53-.1-.71-.13-.77-2.45-.44-2.92-1.73-2.99-2.45-.13-1.6 1.46-3.1 3.04-3.72.02-.06.06-.2.08-.51.03-.55.02-1.04 0-1.55V9.5l-.03-.01-.19-.07c-1.52-.55-2.45-1.3-2.82-2.27-.5-1.34.2-2.62.76-3.66l.28-.51c.64-1.2 1.37-2.54 2.67-2.9a2.63 2.63 0 012.08.34l.18.11c.96.59 1.6.99 2.6.9 4.1-.28 6.37-.2 10.68 0 1.79.08 2.6 1.4 2.59 2.61a2.73 2.73 0 01-2.7 2.76c-1.3.03-2.44-.02-3.53-.07-2.22-.09-4.13-.17-6.5.5-.18.07-.41.1-.64.13l-.17.03.01 1.13c.01.88.02 1.77 0 2.87-.01.14 0 .22 0 .28.07.01.18.03.4.04.8.05 1.54.08 2.26.11 3.64.16 6.52.3 10.3 2.1 1.86.88 1.67 2.12 1.56 2.48-.32 1.14-1.75 1.75-3.64 1.53-4.12-.48-7.04-.48-10.74-.48-.05 0-.15.09-.15.14l-.08.77a52.12 52.12 0 00-.3 9.93c.02.51.31 1.03.91 1.09 4.69.38 8.1-.16 12.4-.85l1.28-.2zm26.73-5.03c1.67 2.27 1.6 4.18 1.25 5.38-.54 1.85-2.18 3.46-4.38 4.3-.92.36-1.9.52-2.9.52-4.17 0-8.87-2.64-12.3-4.83-2.02-1.28-1.66-2.45-1.41-2.9.64-1.12 2.6-1.23 3.93-.56l.14.07c4 2.03 6.42 3.24 10.63 2.8.4-.04.66-.23.81-.58.22-.49.15-1.16-.15-1.56-1.7-2.2-5.98-3.26-9.75-4.19-3.01-.74-5.86-1.45-7.6-2.71-2.17-1.56-3.2-3.17-3.06-4.8.12-1.5 1.25-2.85 3.19-3.82.58-.3 14.52-7.31 19.53-5.35.84.33 1.44.9 1.72 1.67.34.9.71 2.86-.38 3.92-.49.48-1.42.91-3.05.24-.71-.3-3.19-.52-5.1.03a76.3 76.3 0 00-9.38 3.34c.12.12.3.3.56.53.43.38 2.45 1 4.22 1.54 4.55 1.4 10.78 3.3 13.48 6.96z"/></svg>