<svg xmlns="http://www.w3.org/2000/svg" viewBox="0 0 314.5 71.3"><g fill="#fff"><path d="M72.1 35L85 9.7h.1s2.9-5.8 8.6-5.8V1H73.9v2.9s6.9.7 5 4.3h.1L68.7 28.4M62.4 40.9L50.5 64.2l-29-56.9C19.7 3.7 26.6 3 26.6 3V0H0v2.9c5.5 0 8.3 5.3 8.6 5.8l31.6 62h13.7l11.9-23.3"/><path d="M72.1 34.5L58.4 7.8h.1c-1.8-3.6 5.1-4.3 5.1-4.3v-3H37v2.9c4.1 0 6.7 3 7.9 4.7l32.2 63.2"/><path d="M65.2 48l11.9 23.3h13.7l31.6-62.1h.1s2.9-5.8 8.6-5.8V.5h-19.7v2.9s6.9.7 5 4.3h.1l-29 56.9-15.4-30.1M150.3.5h2.7v70.8h-2.7zM178.6 22.4h1.9l8 24.5h.1l8.6-24.5h2.2l8.6 24.5h.1l8-24.5h1.9l-8.8 26.9H207l-8.7-24.4-8.7 24.4h-2.2zM227.3 22.4h1.7v25.4h17.6v1.5h-19.3zM256.4 22.4h1.8v15.5l19.3-15.5h2.8l-14 11.2 14.9 15.7h-2.4L265 34.6l-6.8 5.5v9.2h-1.8zM290.5 22.4h2.2l20 24.5h.1V22.4h1.7v26.9h-2.1l-20.1-24.4h-.1v24.4h-1.7z"/></g></svg>