<svg xmlns="http://www.w3.org/2000/svg" viewBox="0 0 879.93 130.67"><g fill="#fff"><path d="M339.8.48l-56 82.93c-5.83 8.78-16.05 14.08-26.74 14.08-17.42 0-31.83-14.3-31.83-31.57 0-17.52 14.41-31.8 31.95-31.8 1.74-.23 4.07-.47 5.7-.47 12.09 0 24.4 5.07 32.77 13.6l16.73-25.35C299.37 8.55 280.08 0 260.78 0c-36.02 0-69.02 29.73-69.02 65.67 0 35.74 29.51 65 65.55 65a67.18 67.18 0 0046.94-19.6h38.57l.23 19.6h33.48V.48H339.8zM324.48 82.5l18.34-25.56.23 25.56h-18.57zM440.67 130.66h-33.46V30.88h-26.03V.7l85.51-.22v30.4h-26.02v99.78zM578.26.48L544.79.5l-.24 48.6h-39.51L504.79.48h-33.44v130.18h33.69V79.27h39.75v51.4h33.46V.47zM846.45.48v60.58L800.43.48 769.98.7l-.23 47.48C762.08 20.52 735.8.48 706.53.48 670.52.48 641 29.73 641 65.68c0 11.54 3.48 23.26 9.05 33.41h-33.16V.5h-34.1v130.18h77.96v-18.22c12.32 11.3 29.05 18.22 45.78 18.22a66.16 66.16 0 0063.22-47.26l.23 47.26h33.7V67.3l45.77 63.36h30.44L879.93.48h-33.48zM706.53 98.87c-18.35 0-33.46-14.75-33.46-33.2 0-18.19 15.1-33.16 33.46-33.16 18.6 0 33.71 14.97 33.71 33.16 0 18.45-15.1 33.2-33.7 33.2M151.29 99.1V80.88h35.91l-.06-31.79h-35.85V32.51h39.58L190.81.48 114.58.7v44.7C106.68 20.99 83.89 3 57.87.7L0 .48v130.18h58.1c25.8-2.3 48.58-20.26 56.48-44.46v44.46h76.3l-.07-31.56h-39.52zM77.62 85.5c-2.08 8.76-10.45 14.97-19.51 15.2H36.73V30.88H58.1a20.3 20.3 0 0119.51 15.45c2.1 6 3.26 12.9 3.26 19.35a63 63 0 01-3.26 19.82"/></g></svg>