<svg xmlns="http://www.w3.org/2000/svg" viewBox="0 0 170.48 67.28"><g fill="#fff"><path d="M32.6 30.97h-9.78v-1.52h3.08V9.24L15.83 31.38 5.73 8.78v20.67h3.12v1.52H.55v-1.52h3.12V5.37H.55V3.85h6.61l9.37 20.96 9.66-20.96h6.4v1.52h-3.08v24.08h3.09v1.52z"/><path d="M53.84 29.82l-5.92 1.48h-.74v-4.64c-2.96 3.57-4.89 4.85-7.44 4.85-3.08 0-4.97-2.02-4.97-5.3V14.66H31.2v-1.11l5.92-1.6h.78V25.7c0 2.5.98 3.74 3 3.74 1.52 0 2.54-.66 4.4-2.83l1.88-2.1v-9.86h-3.12v-1.27l5.42-1.44h.78v16.72h3.58v1.15zM63.53 30.97h-9.28v-1.52h3.12V3.4h-3.61V2.3l5.91-1.6h.79v28.76h3.08v1.52zM74.22 29.25c-2.18 1.72-3 2.1-4.52 2.1-2.38 0-3.82-1.49-3.82-4V14.67H62.3v-1.11l3.58-.9V6.98h2.96v5.79h5.1v1.89h-5.1v12.33c0 1.56.53 2.13 1.89 2.13.86 0 1.4-.16 2.8-.98l.69 1.1zM84.9 30.97h-9.33v-1.52h3.13V14.66h-3.58v-1.11l5.92-1.6h.74v17.5h3.12v1.52zM80.05 2.74c1.24 0 2.18.95 2.18 2.14 0 1.23-.94 2.18-2.18 2.18-1.19 0-2.13-.95-2.13-2.18 0-1.2.94-2.14 2.13-2.14zM91.77 22.34H86.2v-2.2h5.56v2.2zM102.98 30.97H92.83v-1.52h3.08V5.37h-3.08V3.85h11.75c4.77 0 8.06 3.2 8.06 7.81 0 4.6-3.9 8.18-9 8.18-.78 0-1.24-.04-2.3-.25v-1.44c.53.13.73.13 1.1.13a6.55 6.55 0 006.46-6.62c0-3.29-2.18-5.92-4.9-5.92h-4.47v23.71h3.5l-.05 1.52zM124.6 30.97h-10.16v-1.52h3.13V14.66h-3.58v-1.11l5.92-1.6h.74v4.6c2.96-3.78 4.02-4.69 5.5-4.69.5 0 .9.13 1.16.38l1.27 1.1-2.39 2.88c-.82-.78-1.4-1.15-1.8-1.15-.74 0-1.48.7-3.74 3.45v10.93h3.94v1.52zM143.29 29.25c-3.08 1.76-4.52 2.26-6.9 2.26-5.22 0-8.92-4.03-8.92-9.7 0-5.75 3.74-9.95 8.83-9.95 4.44 0 7.48 3.05 7.48 7.48v1.11h-12.94v.46c0 5.13 2.7 8.7 6.61 8.7 1.64 0 2.76-.4 5.06-1.88l.78 1.52zM140.4 18.8v-.99c0-2.46-1.68-4.23-4.07-4.23-3 0-5.1 2.01-5.46 5.22h9.53zM155.7 29.25c-2.18 1.72-3 2.1-4.52 2.1-2.39 0-3.82-1.49-3.82-4V14.67h-3.58v-1.11l3.58-.9V6.98h2.95v5.79h5.1v1.89h-5.1v12.33c0 1.56.54 2.13 1.9 2.13.86 0 1.4-.16 2.79-.98l.7 1.1zM158.7 31.34h-1.65v-5.83h1.9v1.1c0 1.77 2.3 3.33 4.84 3.33 2.26 0 3.95-1.19 3.95-2.83 0-1.64-1.16-2.55-5.47-4.23-3.94-1.52-5.34-3.04-5.34-5.63 0-3.2 2.59-5.39 6.37-5.39 1.8 0 3.2.46 4.35 1.4l.25-1.48h1.77l-.99 5.92h-1.77c.17-.45.25-.99.25-1.36 0-1.6-1.85-2.91-4.07-2.91-2.13 0-3.53 1.15-3.53 2.91s.29 1.98 5.26 3.99c4.03 1.6 5.3 2.96 5.3 5.59 0 3.28-2.55 5.59-6.2 5.59-2.3 0-4.03-.54-5.22-1.65v1.48z"/></g><path fill="#fff" d="M169.72 56.5H.52v-.4h169.2v.4zM134.97.99l-7.41 8.19h3.24l5.47-5.76 5.47 5.76h3.24l-7.34-8.2z"/><g fill="#fff"><path d="M4.68 66.93l-.63-1.8H1.57l-.63 1.8H.12l2.29-6.3h.81l2.28 6.3h-.82zm-1.86-5.31l-1 2.8H3.8l-1-2.8zM14.57 66.85c-.42.13-1.03.2-1.54.2a3.18 3.18 0 01-3.27-3.2A3.1 3.1 0 0113 60.7c.44 0 .95.05 1.27.14.27.07.41.14.75.32l-.3.63-.32-.16a3.56 3.56 0 00-1.33-.25c-.86 0-1.42.24-1.9.79-.37.44-.6 1.03-.6 1.63 0 1.48 1.14 2.57 2.67 2.57.3 0 .52-.03 1.01-.13v-2.05h.77v2.51c-.2.08-.35.12-.45.15zM20.6 66.93V60.8h3.45v.64h-2.69v2.05h2.23v.64h-2.23v2.16h2.77v.64H20.6zM33.47 66.99l-3.1-4.79-.11-.21c-.04-.07-.07-.1-.08-.14a.99.99 0 01-.09-.23v5.31h-.76V60.8h1l3.03 4.67.09.15.1.28.05.1v-5.2h.76v6.19h-.89zM44.11 61.85a2.43 2.43 0 00-1.5-.47c-1.3 0-2.23 1-2.23 2.41 0 1.55.94 2.56 2.38 2.56.52 0 .92-.09 1.41-.29l.21.6a3.9 3.9 0 01-1.67.4c-1.85 0-3.16-1.33-3.16-3.22 0-1.8 1.33-3.15 3.09-3.15.4 0 .79.07 1.15.2.27.1.4.17.7.38l-.38.58zM49.44 66.93V60.8h3.45v.64H50.2v2.05h2.22v.64H50.2v2.16h2.77v.64h-3.53zM68.58 66.93v-2.8h-3.61v2.8h-.76V60.8h.76v2.63h3.61V60.8h.77v6.13h-.77zM76.96 64.07v2.86h-.77v-2.8l-2.04-3.33h.82l1.64 2.63 1.7-2.63h.8l-2.15 3.27zM85.63 64.69c-.24 0-.41-.02-.95-.08v2.32h-.76V60.8h1.92c.74 0 1.15.13 1.5.48.31.33.47.76.47 1.33 0 1.29-.84 2.08-2.18 2.08zm1.05-2.99c-.19-.18-.46-.26-.95-.26h-1.05v2.53c.43.05.6.05.82.05.34 0 .6-.03.8-.12.44-.18.72-.67.72-1.24 0-.4-.12-.73-.34-.96zM95.34 67.06c-1.79 0-3.09-1.34-3.09-3.2 0-1.83 1.3-3.17 3.09-3.17 1.78 0 3.07 1.34 3.07 3.18 0 1.85-1.29 3.19-3.07 3.19zm0-5.7c-1.24 0-2.25 1.13-2.25 2.5 0 1.4 1.01 2.53 2.25 2.53 1.22 0 2.24-1.14 2.24-2.52 0-1.38-1.02-2.51-2.24-2.51zM105.48 61.44v5.5h-.77v-5.5h-2.04v-.64h4.85v.64h-2.04zM116.71 66.93v-2.8h-3.61v2.8h-.77V60.8h.77v2.63h3.61V60.8h.77v6.13h-.77zM123.22 66.93V60.8h3.45v.64h-2.69v2.05h2.22v.64h-2.22v2.16h2.77v.64h-3.53zm2.2-6.64h-.65l.88-1.1h.82l-1.05 1.1zM135.96 61.85a2.43 2.43 0 00-1.5-.47c-1.3 0-2.24 1-2.24 2.41 0 1.55.94 2.56 2.38 2.56.52 0 .92-.09 1.41-.29l.22.6a3.91 3.91 0 01-1.67.4c-1.85 0-3.16-1.33-3.16-3.22 0-1.8 1.33-3.15 3.08-3.15.4 0 .8.07 1.15.2.27.1.4.17.71.38l-.38.58zM144.9 66.93l-.62-1.8h-2.49l-.63 1.8h-.82l2.3-6.3h.8l2.28 6.3h-.81zm-1.86-5.31l-1 2.8h2l-1-2.8zM150.53 66.93V60.8h.76v6.13h-.76zM160.3 66.93l-1.69-2.63h-.81v2.63h-.77V60.8h1.87c.75 0 1.1.11 1.45.46a1.75 1.75 0 01-.98 2.94l1.8 2.73h-.86zm-.62-5.31c-.18-.15-.34-.18-.89-.18h-1v2.22h1c.81 0 1.23-.4 1.23-1.2 0-.39-.11-.67-.34-.84zM166.18 66.93V60.8h3.45v.64h-2.69v2.05h2.22v.64h-2.22v2.16h2.77v.64h-3.53z"/></g><g fill="#fff"><path d="M10.36 43.93H2.22v-5.91H.52V51.8h1.71v-6.3h8.13v6.3h1.7V38.02h-1.7zM22.65 43.93l-3.7-5.91h-1.83l4.6 7.47v6.31h1.7v-6.43l4.85-7.35h-1.82zM37.64 38.02h-4.32V51.8h1.71v-5.22c1.21.13 1.59.17 2.13.17 3.03 0 4.91-1.78 4.91-4.66 0-1.3-.35-2.25-1.06-2.98-.78-.8-1.7-1.1-3.37-1.1zm1.02 6.97a4.7 4.7 0 01-1.79.28c-.48 0-.88-.03-1.84-.13v-5.68h2.36c1.1 0 1.71.17 2.13.58.5.5.77 1.26.77 2.16 0 1.29-.62 2.38-1.63 2.8zM53.24 37.77c-4.01 0-6.93 3-6.93 7.14 0 4.16 2.92 7.16 6.93 7.16s6.91-3 6.91-7.16c0-4.13-2.9-7.14-6.91-7.14zm0 12.8c-2.78 0-5.05-2.55-5.05-5.66 0-3.09 2.27-5.64 5.05-5.64 2.75 0 5.03 2.55 5.03 5.64 0 3.11-2.27 5.66-5.03 5.66zM63.97 39.46h4.6V51.8h1.7V39.46h4.6v-1.44h-10.9zM89.78 43.93h-8.13v-5.91h-1.7V51.8h1.7v-6.3h8.13v6.3h1.7V38.02h-1.7zM100.36 45.5h5v-1.45h-5v-4.59h6.04v-1.44h-7.75V51.8h7.93v-1.44h-6.22zM103.93 36.87l-1.96-2.46h-1.84l2.36 2.46zM139.76 46.56c0 1.71-.13 2.2-.8 2.92a3.74 3.74 0 01-2.88 1.2c-1.19 0-2.19-.42-2.88-1.2-.66-.73-.79-1.2-.79-2.92v-8.54h-1.71v9.06c0 1.8.46 2.9 1.6 3.84a5.88 5.88 0 003.8 1.28c1.49 0 2.76-.44 3.79-1.28 1.14-.94 1.58-2 1.58-3.84v-9.06h-1.71v8.54zM149.99 45.5h4.99v-1.45h-5v-4.59h6.04v-1.44h-7.74V51.8h7.93v-1.44H150zM166.52 44.33c-2.8-1.49-3.4-2.01-3.4-3.03 0-1.17 1.06-1.94 2.63-1.94.54 0 1.38.12 1.9.29.44.15.73.3 1.44.7l.8-1.41a7.4 7.4 0 00-1.67-.82 7.68 7.68 0 00-2.32-.33c-2.74 0-4.56 1.46-4.56 3.65 0 1.42.88 2.51 2.95 3.62l2.3 1.23c.54.31.94.7 1.17 1.13.14.25.2.58.2.98 0 1.31-.98 2.09-2.6 2.09a5.6 5.6 0 01-3.58-1.26l-.88 1.36c.9.6 1.26.81 1.78 1.02.73.3 1.6.46 2.55.46 2.77 0 4.53-1.48 4.53-3.84 0-1-.4-1.94-1.07-2.5-.5-.44-1.23-.9-2.17-1.4zM118.21 37.77c-4.03 0-6.93 3-6.93 7.14 0 3.1 1.84 5.91 4.45 6.8.48.18.73.22 1.58.36l.3.36c.83 1 1.31 1.57 2.18 2.26h2.72a7.55 7.55 0 01-1.33-.84c-.36-.27-.73-.6-1.13-1-.31-.34-.42-.44-.69-.8a6.97 6.97 0 005.77-7.12c0-4.15-2.9-7.16-6.92-7.16zm0 12.8c-2.8 0-5.07-2.55-5.07-5.66 0-3.09 2.3-5.64 5.07-5.64 2.78 0 5.06 2.55 5.06 5.64 0 3.11-2.28 5.66-5.06 5.66z"/></g></svg>